<?xml version="1.0" encoding="UTF-8"?>
<svg width="16px" height="16px" viewBox="0 0 16 16" version="1.1" xmlns="http://www.w3.org/2000/svg">
    <title>TabletPhone</title>
    <g id="TabletPhone" stroke="none" stroke-width="1" fill="none" fill-rule="evenodd">
        <g id="Tablet" transform="translate(1.000000, 2.000000)">
            <g id="Phone" transform="translate(6.000000, 3.000000)">
                <polygon id="Path" points="0 0 10 0 10 10 0 10"/>
                <path d="M4.92857143,0 L2.07142857,0 C1.47857143,0 1,0.548181818 1,1.22727273 L1,7.77272727 C1,8.45181818 1.47857143,9 2.07142857,9 L4.92857143,9 C5.52142857,9 6,8.45181818 6,7.77272727 L6,1.22727273 C6,0.548181818 5.52142857,0 4.92857143,0 Z M5.375,6.95454545 L1.625,6.95454545 L1.625,1.22727273 L5.375,1.22727273 L5.375,6.95454545 Z"
                      id="Shape" fill="#AFB1B3"/>
            </g>
            <rect id="Rectangle" x="0" y="0" width="11" height="11"/>
            <path d="M10,2 L9.222,2 L9.22222222,1.375 L2.77777778,1.375 L2.77777778,9.375 L6,9.375 L6,11 L3.33333333,11 C2.59555556,11 2,10.3858333 2,9.625 L2,9.625 L2,1.375 C2,0.614166667 2.59555556,0 3.33333333,0 L3.33333333,0 L8.66666667,0 C9.40444444,0 10,0.614166667 10,1.375 L10,1.375 L10,2 Z"
                  id="Shape" fill="#6E6E6E"/>
        </g>
    </g>
</svg>